<?xml version="1.0" encoding="UTF-8"?>
<svg version="1.1" viewBox="0 0 294.3 283.62" xmlns="http://www.w3.org/2000/svg">
<g transform="translate(-94.75 -38.117)">
<g stroke-dasharray="" stroke-miterlimit="10">
<path d="m198.3 77.067c21.086 0 43.372 5.1441 66.139 23.516 0.23618 0.19059 2.6712 6.9388 6.9274 12.504 5.1039 6.6737 10.723 9.7544 10.34 9.8907-15.926 5.6778-28.782 12.101-26.923 18.692 2.9246 10.372 29.474 9.53 31.564 12.694 2.4768 3.75-6.787 62.15-12.898 76.198-4.3501 4.996-9.7881 6.7255-10.286 7.4545-1.9526 2.8562-2.9356 10.113-0.25764 14.706 0.24367 0.41791-20.371 21.528-20.497 21.59-13.182 6.4618-28.336 9.8481-44.108 9.8481-57.157 0-103.55-46.389-103.55-103.55s46.389-103.55 103.55-103.55z" fill="#717892" stroke-linecap="round" stroke-width="0"/>
<path d="m132.54 229.67 17.876-30.956 17.767-30.847 17.876-30.956 17.44-30.193 0.436-0.654h18.639l0.872 3.27 6.758 25.288 0.654 2.289h19.402l-13.298 22.999 2.18 7.957 8.284 30.847 8.284 30.956h-19.184l-8.284-30.956-4.36-16.023-9.265 16.023-17.876 30.956h-21.364l17.767-30.956 17.876-30.847 6.104-10.573-5.45-20.383-1.308-4.905-2.943 4.905-17.767 30.956-17.876 30.847-17.876 30.956z" fill="#3cece4"/>
<path d="m243.06 321.6c-4.8144-0.2832-5.2392-0.4248-6.372-1.6992-0.9912-1.416-1.1328-2.2656-1.1328-9.3454 0-8.3544 0-8.2128 3.8232-12.319 1.1328-1.1328 0.84958-2.4072-0.9912-5.5224-0.8496-1.5574-1.6992-3.3982-1.6992-4.2478 0-2.5488 3.1152-6.2304 14.16-17.417 16.425-16.284 16.709-16.85 15.009-22.09-0.9912-2.9736-0.8496-6.3718 0.2832-7.6462 0.28318-0.4248 1.8408-1.416 3.2568-2.124 1.5576-0.708 3.8232-2.4072 5.0976-3.6816 1.9824-1.9824 2.5488-3.1152 4.6728-9.4872 5.8056-17.7 10.903-48.427 11.045-66.552 0-6.5136-0.14161-8.7792-0.70799-9.0624-0.4248-0.2832-3.8232-0.8496-7.5048-1.416-10.62-1.5576-20.674-4.6728-22.939-7.2216-0.99118-0.99118-0.99118-1.2744-0.1416-2.6904 1.6992-3.1152 11.045-7.9296 23.222-11.894 4.3896-1.416 5.5224-2.124 5.5224-2.9736 0-0.5664-1.5576-2.2656-3.54-3.9648-6.9384-5.664-13.027-14.301-15.293-21.806-3.3984-10.903-2.4072-24.497 2.5488-34.409 4.956-10.054 15.009-19.258 24.78-22.798 3.9648-1.2744 12.885-3.1152 16.142-3.1152 3.3984 0 10.62 1.416 14.726 2.6904 10.337 3.3984 19.966 11.328 25.488 21.382 2.6904 4.8144 3.9648 8.7792 5.0976 15.717 2.4072 15.151-4.248 32.568-16.142 41.63-1.5576 1.1328-3.2568 2.832-3.6816 3.54-0.84958 1.2744-0.84958 1.416 0 2.124 0.5664 0.4248 2.832 1.2744 4.956 1.8408 5.3808 1.6992 15.434 6.2304 19.258 8.6376 3.2568 2.124 4.3896 3.9648 3.6816 5.8056-0.8496 2.124-12.602 5.8056-23.93 7.5048-3.3984 0.4248-6.5136 1.1328-6.9384 1.5576-1.416 1.1328 0.1416 22.939 2.6904 39.648 2.124 13.452 7.788 36.958 10.054 41.347 1.6992 3.2568 3.54 5.2392 6.5136 6.7968 4.6728 2.5488 5.5224 3.54 5.5224 6.2302 0 1.416-0.2832 3.6816-0.84958 5.2392-0.708 2.5488-0.708 2.832 0.42478 5.0976 0.708 1.6992 5.664 7.08 13.877 15.293 6.9384 6.9384 13.169 13.452 13.735 14.443 1.9824 3.2568 1.2744 7.08-1.8408 10.053-1.9824 1.8408-1.8408 2.5488 0.70798 4.3896 1.2744 0.8496 2.5488 2.124 2.832 2.9736 0.2832 0.708 0.5664 4.6728 0.5664 8.7792 0 7.2214 0 7.6462-1.2744 9.2038l-1.416 1.5576-68.959 0.1416c-37.949 0-71.366-0.1416-74.34-0.1416z" fill="#3dede4" stroke="#fff" stroke-width="0"/>
</g>
</g>
</svg>
